<?xml version='1.0' encoding='UTF-8'?>
<svg width="61mm" height="61mm" version="1.1" viewBox="4 4 53 53" xmlns="http://www.w3.org/2000/svg"><path style="fill:#32b761;fill-opacity:1;fill-rule:nonzero;stroke:none" d="M 22 21 L 22 22 L 23 22 L 23 21 z M 54 10 L 54 11 L 55 11 L 55 10 z M 33 36 L 33 37 L 34 37 L 34 36 z M 12 13 L 12 14 L 13 14 L 13 13 z M 52 49 L 52 50 L 53 50 L 53 49 z M 4 9 L 4 10 L 5 10 L 5 9 z M 10 52 L 10 53 L 11 53 L 11 52 z M 56 19 L 56 20 L 57 20 L 57 19 z M 45 46 L 45 47 L 46 47 L 46 46 z M 37 42 L 37 43 L 38 43 L 38 42 z M 38 7 L 38 8 L 39 8 L 39 7 z M 48 51 L 48 52 L 49 52 L 49 51 z M 49 16 L 49 17 L 50 17 L 50 16 z M 6 54 L 6 55 L 7 55 L 7 54 z M 7 19 L 7 20 L 8 20 L 8 19 z M 53 22 L 53 23 L 54 23 L 54 22 z M 40 52 L 40 53 L 41 53 L 41 52 z M 19 29 L 19 30 L 20 30 L 20 29 z M 52 26 L 52 27 L 53 27 L 53 26 z M 34 8 L 34 9 L 35 9 L 35 8 z M 29 15 L 29 16 L 30 16 L 30 15 z M 48 28 L 48 29 L 49 29 L 49 28 z M 14 35 L 14 36 L 15 36 L 15 35 z M 19 6 L 19 7 L 20 7 L 20 6 z M 22 11 L 22 12 L 23 12 L 23 11 z M 21 52 L 21 53 L 22 53 L 22 52 z M 13 48 L 13 49 L 14 49 L 14 48 z M 52 39 L 52 40 L 53 40 L 53 39 z M 44 35 L 44 36 L 45 36 L 45 35 z M 15 8 L 15 9 L 16 9 L 16 8 z M 56 9 L 56 10 L 57 10 L 57 9 z M 10 42 L 10 43 L 11 43 L 11 42 z M 37 32 L 37 33 L 38 33 L 38 32 z M 29 28 L 29 29 L 30 29 L 30 28 z M 55 49 L 55 50 L 56 50 L 56 49 z M 6 44 L 6 45 L 7 45 L 7 44 z M 26 22 L 26 23 L 27 23 L 27 22 z M 40 42 L 40 43 L 41 43 L 41 42 z M 32 38 L 32 39 L 33 39 L 33 38 z M 52 16 L 52 17 L 53 17 L 53 16 z M 25 35 L 25 36 L 26 36 L 26 35 z M 45 13 L 45 14 L 46 14 L 46 13 z M 10 55 L 10 56 L 11 56 L 11 55 z M 29 5 L 29 6 L 30 6 L 30 5 z M 38 10 L 38 11 L 39 11 L 39 10 z M 39 54 L 39 55 L 40 55 L 40 54 z M 51 28 L 51 29 L 52 29 L 52 28 z M 21 42 L 21 43 L 22 43 L 22 42 z M 32 51 L 32 52 L 33 52 L 33 51 z M 52 29 L 52 30 L 53 30 L 53 29 z M 25 12 L 25 13 L 26 13 L 26 12 z M 44 25 L 44 26 L 45 26 L 45 25 z M 10 32 L 10 33 L 11 33 L 11 32 z M 24 52 L 24 53 L 25 53 L 25 52 z M 6 34 L 6 35 L 7 35 L 7 34 z M 47 35 L 47 36 L 48 36 L 48 35 z M 39 31 L 39 32 L 40 32 L 40 31 z M 18 8 L 18 9 L 19 9 L 19 8 z M 5 38 L 5 39 L 6 39 L 6 38 z M 20 54 L 20 55 L 21 55 L 21 54 z M 40 32 L 40 33 L 41 33 L 41 32 z M 13 15 L 13 16 L 14 16 L 14 15 z M 32 28 L 32 29 L 33 29 L 33 28 z M 52 6 L 52 7 L 53 7 L 53 6 z M 9 44 L 9 45 L 10 45 L 10 44 z M 10 9 L 10 10 L 11 10 L 11 9 z M 13 51 L 13 52 L 14 52 L 14 51 z M 54 52 L 54 53 L 55 53 L 55 52 z M 33 29 L 33 30 L 34 30 L 34 29 z M 46 48 L 46 49 L 47 49 L 47 48 z M 25 25 L 25 26 L 26 26 L 26 25 z M 35 38 L 35 39 L 36 39 L 36 38 z M 14 15 L 14 16 L 15 16 L 15 15 z M 55 16 L 55 17 L 56 17 L 56 16 z M 36 39 L 36 40 L 37 40 L 37 39 z M 55 52 L 55 53 L 56 53 L 56 52 z M 40 9 L 40 10 L 41 10 L 41 9 z M 9 21 L 9 22 L 10 22 L 10 21 z M 13 28 L 13 29 L 14 29 L 14 28 z M 44 15 L 44 16 L 45 16 L 45 15 z M 10 22 L 10 23 L 11 23 L 11 22 z M 16 38 L 16 39 L 17 39 L 17 38 z M 55 29 L 55 30 L 56 30 L 56 29 z M 28 12 L 28 13 L 29 13 L 29 12 z M 27 47 L 27 48 L 28 48 L 28 47 z M 47 25 L 47 26 L 48 26 L 48 25 z M 39 21 L 39 22 L 40 22 L 40 21 z M 5 28 L 5 29 L 6 29 L 6 28 z M 17 39 L 17 40 L 18 40 L 18 39 z M 28 48 L 28 49 L 29 49 L 29 48 z M 20 44 L 20 45 L 21 45 L 21 44 z M 21 9 L 21 10 L 22 10 L 22 9 z M 40 22 L 40 23 L 41 23 L 41 22 z M 9 34 L 9 35 L 10 35 L 10 34 z M 12 45 L 12 46 L 13 46 L 13 45 z M 43 32 L 43 33 L 44 33 L 44 32 z M 35 28 L 35 29 L 36 29 L 36 28 z M 27 24 L 27 25 L 28 25 L 28 24 z M 24 55 L 24 56 L 25 56 L 25 55 z M 16 51 L 16 52 L 17 52 L 17 51 z M 28 25 L 28 26 L 29 26 L 29 25 z M 39 34 L 39 35 L 40 35 L 40 34 z M 13 18 L 13 19 L 14 19 L 14 18 z M 53 54 L 53 55 L 54 55 L 54 54 z M 31 35 L 31 36 L 32 36 L 32 35 z M 23 31 L 23 32 L 24 32 L 24 31 z M 43 9 L 43 10 L 44 10 L 44 9 z M 34 40 L 34 41 L 35 41 L 35 40 z M 35 5 L 35 6 L 36 6 L 36 5 z M 46 51 L 46 52 L 47 52 L 47 51 z M 4 54 L 4 55 L 5 55 L 5 54 z M 16 28 L 16 29 L 17 29 L 17 28 z M 35 41 L 35 42 L 36 42 L 36 41 z M 36 6 L 36 7 L 37 7 L 37 6 z M 27 37 L 27 38 L 28 38 L 28 37 z M 47 15 L 47 16 L 48 16 L 48 15 z M 39 11 L 39 12 L 40 12 L 40 11 z M 50 26 L 50 27 L 51 27 L 51 26 z M 53 31 L 53 32 L 54 32 L 54 31 z M 32 8 L 32 9 L 33 9 L 33 8 z M 22 43 L 22 44 L 23 44 L 23 43 z M 54 32 L 54 33 L 55 33 L 55 32 z M 12 35 L 12 36 L 13 36 L 13 35 z M 31 48 L 31 49 L 32 49 L 32 48 z M 4 31 L 4 32 L 5 32 L 5 31 z M 23 44 L 23 45 L 24 45 L 24 44 z M 43 22 L 43 23 L 44 23 L 44 22 z M 15 40 L 15 41 L 16 41 L 16 40 z M 34 53 L 34 54 L 35 54 L 35 53 z M 27 14 L 27 15 L 28 15 L 28 14 z M 16 41 L 16 42 L 17 42 L 17 41 z M 17 6 L 17 7 L 18 7 L 18 6 z M 8 37 L 8 38 L 9 38 L 9 37 z M 49 38 L 49 39 L 50 39 L 50 38 z M 28 15 L 28 16 L 29 16 L 29 15 z M 20 11 L 20 12 L 21 12 L 21 11 z M 50 39 L 50 40 L 51 40 L 51 39 z M 53 44 L 53 45 L 54 45 L 54 44 z M 46 5 L 46 6 L 47 6 L 47 5 z M 19 51 L 19 52 L 20 52 L 20 51 z M 31 25 L 31 26 L 32 26 L 32 25 z M 4 8 L 4 9 L 5 9 L 5 8 z M 22 56 L 22 57 L 23 57 L 23 56 z M 23 21 L 23 22 L 24 22 L 24 21 z M 15 17 L 15 18 L 16 18 L 16 17 z M 12 48 L 12 49 L 13 49 L 13 48 z M 4 44 L 4 45 L 5 45 L 5 44 z M 24 22 L 24 23 L 25 23 L 25 22 z M 16 18 L 16 19 L 17 19 L 17 18 z M 56 54 L 56 55 L 57 55 L 57 54 z M 48 50 L 48 51 L 49 51 L 49 50 z M 27 27 L 27 28 L 28 28 L 28 27 z M 47 5 L 47 6 L 48 6 L 48 5 z M 38 42 L 38 43 L 39 43 L 39 42 z M 7 54 L 7 55 L 8 55 L 8 54 z M 19 28 L 19 29 L 20 29 L 20 28 z M 34 7 L 34 8 L 35 8 L 35 7 z M 12 25 L 12 26 L 13 26 L 13 25 z M 4 21 L 4 22 L 5 22 L 5 21 z M 15 30 L 15 31 L 16 31 L 16 30 z M 37 54 L 37 55 L 38 55 L 38 54 z M 49 28 L 49 29 L 50 29 L 50 28 z M 7 31 L 7 32 L 8 32 L 8 31 z M 30 14 L 30 15 L 31 15 L 31 14 z M 22 10 L 22 11 L 23 11 L 23 10 z M 19 41 L 19 42 L 20 42 L 20 41 z M 11 37 L 11 38 L 12 38 L 12 37 z M 30 50 L 30 51 L 31 51 L 31 50 z M 22 46 L 22 47 L 23 47 L 23 46 z M 15 7 L 15 8 L 16 8 L 16 7 z M 45 35 L 45 36 L 46 36 L 46 35 z M 37 31 L 37 32 L 38 32 L 38 31 z M 16 8 L 16 9 L 17 9 L 17 8 z M 8 4 L 8 5 L 9 5 L 9 4 z M 14 47 L 14 48 L 15 48 L 15 47 z M 6 43 L 6 44 L 7 44 L 7 43 z M 26 21 L 26 22 L 27 22 L 27 21 z M 38 32 L 38 33 L 39 33 L 39 32 z M 50 6 L 50 7 L 51 7 L 51 6 z M 18 53 L 18 54 L 19 54 L 19 53 z M 11 14 L 11 15 L 12 15 L 12 14 z M 46 8 L 46 9 L 47 9 L 47 8 z M 12 15 L 12 16 L 13 16 L 13 15 z M 52 51 L 52 52 L 53 52 L 53 51 z M 44 47 L 44 48 L 45 48 L 45 47 z M 45 12 L 45 13 L 46 13 L 46 12 z M 10 54 L 10 55 L 11 55 L 11 54 z M 56 21 L 56 22 L 57 22 L 57 21 z M 45 48 L 45 49 L 46 49 L 46 48 z M 37 44 L 37 45 L 38 45 L 38 44 z M 38 9 L 38 10 L 39 10 L 39 9 z M 29 40 L 29 41 L 30 41 L 30 40 z M 48 53 L 48 54 L 49 54 L 49 53 z M 41 14 L 41 15 L 42 15 L 42 14 z M 6 56 L 6 57 L 7 57 L 7 56 z M 26 34 L 26 35 L 27 35 L 27 34 z M 40 54 L 40 55 L 41 55 L 41 54 z M 32 50 L 32 51 L 33 51 L 33 50 z M 11 27 L 11 28 L 12 28 L 12 27 z M 52 28 L 52 29 L 53 29 L 53 28 z M 31 5 L 31 6 L 32 6 L 32 5 z M 34 10 L 34 11 L 35 11 L 35 10 z M 37 21 L 37 22 L 38 22 L 38 21 z M 29 17 L 29 18 L 30 18 L 30 17 z M 48 30 L 48 31 L 49 31 L 49 30 z M 14 37 L 14 38 L 15 38 L 15 37 z M 38 22 L 38 23 L 39 23 L 39 22 z M 19 8 L 19 9 L 20 9 L 20 8 z M 51 40 L 51 41 L 52 41 L 52 40 z M 22 13 L 22 14 L 23 14 L 23 13 z M 33 28 L 33 29 L 34 29 L 34 28 z M 52 41 L 52 42 L 53 42 L 53 41 z M 10 44 L 10 45 L 11 45 L 11 44 z M 48 7 L 48 8 L 49 8 L 49 7 z M 14 14 L 14 15 L 15 15 L 15 14 z M 6 10 L 6 11 L 7 11 L 7 10 z M 47 47 L 47 48 L 48 48 L 48 47 z M 26 24 L 26 25 L 27 25 L 27 24 z M 21 31 L 21 32 L 22 32 L 22 31 z M 40 44 L 40 45 L 41 45 L 41 44 z M 32 40 L 32 41 L 33 41 L 33 40 z M 51 53 L 51 54 L 52 54 L 52 53 z M 9 56 L 9 57 L 10 57 L 10 56 z M 33 41 L 33 42 L 34 42 L 34 41 z M 45 15 L 45 16 L 46 16 L 46 15 z M 29 7 L 29 8 L 30 8 L 30 7 z M 48 20 L 48 21 L 49 21 L 49 20 z M 14 27 L 14 28 L 15 28 L 15 27 z M 55 28 L 55 29 L 56 29 L 56 28 z M 36 51 L 36 52 L 37 52 L 37 51 z M 28 47 L 28 48 L 29 48 L 29 47 z M 20 43 L 20 44 L 21 44 L 21 43 z M 39 56 L 39 57 L 40 57 L 40 56 z M 40 21 L 40 22 L 41 22 L 41 21 z M 32 17 L 32 18 L 33 18 L 33 17 z M 9 33 L 9 34 L 10 34 L 10 33 z M 21 44 L 21 45 L 22 45 L 22 44 z M 13 40 L 13 41 L 14 41 L 14 40 z M 32 53 L 32 54 L 33 54 L 33 53 z M 33 18 L 33 19 L 34 19 L 34 18 z M 52 31 L 52 32 L 53 32 L 53 31 z M 25 14 L 25 15 L 26 15 L 26 14 z M 44 27 L 44 28 L 45 28 L 45 27 z M 10 34 L 10 35 L 11 35 L 11 34 z M 29 20 L 29 21 L 30 21 L 30 20 z M 24 54 L 24 55 L 25 55 L 25 54 z M 8 46 L 8 47 L 9 47 L 9 46 z M 55 41 L 55 42 L 56 42 L 56 41 z M 28 24 L 28 25 L 29 25 L 29 24 z M 18 10 L 18 11 L 19 11 L 19 10 z M 40 34 L 40 35 L 41 35 L 41 34 z M 13 17 L 13 18 L 14 18 L 14 17 z M 32 30 L 32 31 L 33 31 L 33 30 z M 52 8 L 52 9 L 53 9 L 53 8 z M 9 46 L 9 47 L 10 47 L 10 46 z M 54 54 L 54 55 L 55 55 L 55 54 z M 4 53 L 4 54 L 5 54 L 5 53 z M 24 31 L 24 32 L 25 32 L 25 31 z M 48 10 L 48 11 L 49 11 L 49 10 z M 14 17 L 14 18 L 15 18 L 15 17 z M 28 37 L 28 38 L 29 38 L 29 37 z M 47 50 L 47 51 L 48 51 L 48 50 z M 39 46 L 39 47 L 40 47 L 40 46 z M 9 23 L 9 24 L 10 24 L 10 23 z M 21 34 L 21 35 L 22 35 L 22 34 z M 33 8 L 33 9 L 34 9 L 34 8 z M 31 47 L 31 48 L 32 48 L 32 47 z M 10 24 L 10 25 L 11 25 L 11 24 z M 23 43 L 23 44 L 24 44 L 24 43 z M 43 21 L 43 22 L 44 22 L 44 21 z M 34 52 L 34 53 L 35 53 L 35 52 z M 24 44 L 24 45 L 25 45 L 25 44 z M 36 18 L 36 19 L 37 19 L 37 18 z M 55 31 L 55 32 L 56 32 L 56 31 z M 27 49 L 27 50 L 28 50 L 28 49 z M 47 27 L 47 28 L 48 28 L 48 27 z M 20 10 L 20 11 L 21 11 L 21 10 z M 5 30 L 5 31 L 6 31 L 6 30 z M 21 11 L 21 12 L 22 12 L 22 11 z M 40 24 L 40 25 L 41 25 L 41 24 z M 13 7 L 13 8 L 14 8 L 14 7 z M 54 44 L 54 45 L 55 45 L 55 44 z M 23 56 L 23 57 L 24 57 L 24 56 z M 24 21 L 24 22 L 25 22 L 25 21 z M 43 34 L 43 35 L 44 35 L 44 34 z M 15 52 L 15 53 L 16 53 L 16 52 z M 35 30 L 35 31 L 36 31 L 36 30 z M 36 31 L 36 32 L 37 32 L 37 31 z M 39 36 L 39 37 L 40 37 L 40 36 z M 51 10 L 51 11 L 52 11 L 52 10 z M 9 13 L 9 14 L 10 14 L 10 13 z M 42 47 L 42 48 L 43 48 L 43 47 z M 53 56 L 53 57 L 54 57 L 54 56 z M 46 17 L 46 18 L 47 18 L 47 17 z M 12 24 L 12 25 L 13 25 L 13 24 z M 43 11 L 43 12 L 44 12 L 44 11 z M 15 29 L 15 30 L 16 30 L 16 29 z M 46 53 L 46 54 L 47 54 L 47 53 z M 4 56 L 4 57 L 5 57 L 5 56 z M 35 43 L 35 44 L 36 44 L 36 43 z M 36 8 L 36 9 L 37 9 L 37 8 z M 8 26 L 8 27 L 9 27 L 9 26 z M 27 39 L 27 40 L 28 40 L 28 39 z M 28 4 L 28 5 L 29 5 L 29 4 z M 39 13 L 39 14 L 40 14 L 40 13 z M 5 20 L 5 21 L 6 21 L 6 20 z M 38 54 L 38 55 L 39 55 L 39 54 z M 50 28 L 50 29 L 51 29 L 51 28 z M 53 33 L 53 34 L 54 34 L 54 33 z M 19 40 L 19 41 L 20 41 L 20 40 z M 54 34 L 54 35 L 55 35 L 55 34 z M 24 11 L 24 12 L 25 12 L 25 11 z M 43 24 L 43 25 L 44 25 L 44 24 z M 16 7 L 16 8 L 17 8 L 17 7 z M 35 20 L 35 21 L 36 21 L 36 20 z M 27 16 L 27 17 L 28 17 L 28 16 z M 17 8 L 17 9 L 18 9 L 18 8 z M 8 39 L 8 40 L 9 40 L 9 39 z M 50 5 L 50 6 L 51 6 L 51 5 z M 53 10 L 53 11 L 54 11 L 54 10 z M 26 56 L 26 57 L 27 57 L 27 56 z M 30 26 L 30 27 L 31 27 L 31 26 z M 53 46 L 53 47 L 54 47 L 54 46 z M 46 7 L 46 8 L 47 8 L 47 7 z M 31 27 L 31 28 L 32 28 L 32 27 z M 4 10 L 4 11 L 5 11 L 5 10 z M 23 23 L 23 24 L 24 24 L 24 23 z M 15 19 L 15 20 L 16 20 L 16 19 z M 34 32 L 34 33 L 35 33 L 35 32 z M 4 46 L 4 47 L 5 47 L 5 46 z M 45 47 L 45 48 L 46 48 L 46 47 z M 8 16 L 8 17 L 9 17 L 9 16 z M 48 52 L 48 53 L 49 53 L 49 52 z M 26 33 L 26 34 L 27 34 L 27 33 z M 5 10 L 5 11 L 6 11 L 6 10 z M 50 18 L 50 19 L 51 19 L 51 18 z M 42 14 L 42 15 L 43 15 L 43 14 z M 7 56 L 7 57 L 8 57 L 8 56 z M 53 23 L 53 24 L 54 24 L 54 23 z M 11 26 L 11 27 L 12 27 L 12 26 z M 33 50 L 33 51 L 34 51 L 34 50 z M 4 23 L 4 24 L 5 24 L 5 23 z M 56 33 L 56 34 L 57 34 L 57 33 z M 29 52 L 29 53 L 30 53 L 30 52 z M 41 26 L 41 27 L 42 27 L 42 26 z M 30 16 L 30 17 L 31 17 L 31 16 z M 22 12 L 22 13 L 23 13 L 23 12 z M 11 39 L 11 40 L 12 40 L 12 39 z M 31 17 L 31 18 L 32 18 L 32 17 z M 23 13 L 23 14 L 24 14 L 24 13 z M 37 33 L 37 34 L 38 34 L 38 33 z M 8 6 L 8 7 L 9 7 L 9 6 z M 48 42 L 48 43 L 49 43 L 49 42 z M 14 49 L 14 50 L 15 50 L 15 49 z M 7 10 L 7 11 L 8 11 L 8 10 z M 26 23 L 26 24 L 27 24 L 27 23 z M 18 19 L 18 20 L 19 20 L 19 19 z M 38 34 L 38 35 L 39 35 L 39 34 z M 50 8 L 50 9 L 51 9 L 51 8 z M 7 46 L 7 47 L 8 47 L 8 46 z M 18 55 L 18 56 L 19 56 L 19 55 z M 11 16 L 11 17 L 12 17 L 12 16 z M 51 52 L 51 53 L 52 53 L 52 52 z M 22 25 L 22 26 L 23 26 L 23 25 z M 33 40 L 33 41 L 34 41 L 34 40 z M 25 36 L 25 37 L 26 37 L 26 36 z M 44 49 L 44 50 L 45 50 L 45 49 z M 45 14 L 45 15 L 46 15 L 46 14 z M 10 56 L 10 57 L 11 57 L 11 56 z M 14 26 L 14 27 L 15 27 L 15 26 z M 37 46 L 37 47 L 38 47 L 38 46 z M 29 42 L 29 43 L 30 43 L 30 42 z M 41 16 L 41 17 L 42 17 L 42 16 z M 18 32 L 18 33 L 19 33 L 19 32 z M 40 56 L 40 57 L 41 57 L 41 56 z M 32 52 L 32 53 L 33 53 L 33 52 z M 52 30 L 52 31 L 53 31 L 53 30 z M 33 53 L 33 54 L 34 54 L 34 53 z M 25 49 L 25 50 L 26 50 L 26 49 z M 37 23 L 37 24 L 38 24 L 38 23 z M 56 36 L 56 37 L 57 37 L 57 36 z M 48 32 L 48 33 L 49 33 L 49 32 z M 26 13 L 26 14 L 27 14 L 27 13 z M 17 50 L 17 51 L 18 51 L 18 50 z M 20 55 L 20 56 L 21 56 L 21 55 z M 32 29 L 32 30 L 33 30 L 33 29 z M 51 42 L 51 43 L 52 43 L 52 42 z M 52 7 L 52 8 L 53 8 L 53 7 z M 22 15 L 22 16 L 23 16 L 23 15 z M 9 45 L 9 46 L 10 46 L 10 45 z M 21 56 L 21 57 L 22 57 L 22 56 z M 13 52 L 13 53 L 14 53 L 14 52 z M 52 43 L 52 44 L 53 44 L 53 43 z M 25 26 L 25 27 L 26 27 L 26 26 z M 44 39 L 44 40 L 45 40 L 45 39 z M 45 4 L 45 5 L 46 5 L 46 4 z M 10 46 L 10 47 L 11 47 L 11 46 z M 56 13 L 56 14 L 57 14 L 57 13 z M 6 12 L 6 13 L 7 13 L 7 12 z M 29 32 L 29 33 L 30 33 L 30 32 z M 41 6 L 41 7 L 42 7 L 42 6 z M 55 53 L 55 54 L 56 54 L 56 53 z M 7 13 L 7 14 L 8 14 L 8 13 z M 47 49 L 47 50 L 48 50 L 48 49 z M 39 45 L 39 46 L 40 46 L 40 45 z M 51 19 L 51 20 L 52 20 L 52 19 z M 21 33 L 21 34 L 22 34 L 22 33 z M 40 46 L 40 47 L 41 47 L 41 46 z M 13 29 L 13 30 L 14 30 L 14 29 z M 32 42 L 32 43 L 33 43 L 33 42 z M 33 7 L 33 8 L 34 8 L 34 7 z M 52 20 L 52 21 L 53 21 L 53 20 z M 24 43 L 24 44 L 25 44 L 25 43 z M 43 56 L 43 57 L 44 57 L 44 56 z M 35 52 L 35 53 L 36 53 L 36 52 z M 14 29 L 14 30 L 15 30 L 15 29 z M 47 26 L 47 27 L 48 27 L 48 26 z M 17 40 L 17 41 L 18 41 L 18 40 z M 28 49 L 28 50 L 29 50 L 29 49 z M 51 32 L 51 33 L 52 33 L 52 32 z M 9 35 L 9 36 L 10 36 L 10 35 z M 21 46 L 21 47 L 22 47 L 22 46 z M 25 16 L 25 17 L 26 17 L 26 16 z M 10 36 L 10 37 L 11 37 L 11 36 z M 16 52 L 16 53 L 17 53 L 17 52 z M 28 26 L 28 27 L 29 27 L 29 26 z M 47 39 L 47 40 L 48 40 L 48 39 z M 9 12 L 9 13 L 10 13 L 10 12 z M 50 50 L 50 51 L 51 51 L 51 50 z M 21 23 L 21 24 L 22 24 L 22 23 z M 40 36 L 40 37 L 41 37 L 41 36 z M 13 19 L 13 20 L 14 20 L 14 19 z M 32 32 L 32 33 L 33 33 L 33 32 z M 52 10 L 52 11 L 53 11 L 53 10 z M 44 6 L 44 7 L 45 7 L 45 6 z M 54 56 L 54 57 L 55 57 L 55 56 z M 46 52 L 46 53 L 47 53 L 47 52 z M 4 55 L 4 56 L 5 56 L 5 55 z M 24 33 L 24 34 L 25 34 L 25 33 z M 35 42 L 35 43 L 36 43 L 36 42 z M 55 20 L 55 21 L 56 21 L 56 20 z M 6 15 L 6 16 L 7 16 L 7 15 z M 47 16 L 47 17 L 48 17 L 48 16 z M 17 30 L 17 31 L 18 31 L 18 30 z M 36 43 L 36 44 L 37 44 L 37 43 z M 28 39 L 28 40 L 29 40 L 29 39 z M 40 13 L 40 14 L 41 14 L 41 13 z M 32 9 L 32 10 L 33 10 L 33 9 z M 54 33 L 54 34 L 55 34 L 55 33 z M 46 29 L 46 30 L 47 30 L 47 29 z M 23 45 L 23 46 L 24 46 L 24 45 z M 24 46 L 24 47 L 25 47 L 25 46 z M 16 42 L 16 43 L 17 43 L 17 42 z M 17 7 L 17 8 L 18 8 L 18 7 z M 35 55 L 35 56 L 36 56 L 36 55 z M 55 33 L 55 34 L 56 34 L 56 33 z M 47 29 L 47 30 L 48 30 L 48 29 z M 20 12 L 20 13 L 21 13 L 21 12 z M 50 40 L 50 41 L 51 41 L 51 40 z M 42 36 L 42 37 L 43 37 L 43 36 z M 13 9 L 13 10 L 14 10 L 14 9 z M 53 45 L 53 46 L 54 46 L 54 45 z M 19 52 L 19 53 L 20 53 L 20 52 z M 11 48 L 11 49 L 12 49 L 12 48 z M 34 31 L 34 32 L 35 32 L 35 31 z M 12 49 L 12 50 L 13 50 L 13 49 z M 4 45 L 4 46 L 5 46 L 5 45 z M 24 23 L 24 24 L 25 24 L 25 23 z M 43 36 L 43 37 L 44 37 L 44 36 z M 15 54 L 15 55 L 16 55 L 16 54 z M 55 10 L 55 11 L 56 11 L 56 10 z M 47 6 L 47 7 L 48 7 L 48 6 z M 17 20 L 17 21 L 18 21 L 18 20 z M 49 52 L 49 53 L 50 53 L 50 52 z M 28 29 L 28 30 L 29 30 L 29 29 z M 41 48 L 41 49 L 42 49 L 42 48 z M 20 25 L 20 26 L 21 26 L 21 25 z M 46 19 L 46 20 L 47 20 L 47 19 z M 31 39 L 31 40 L 32 40 L 32 39 z M 34 44 L 34 45 L 35 45 L 35 44 z M 27 5 L 27 6 L 28 6 L 28 5 z M 24 36 L 24 37 L 25 37 L 25 36 z M 16 32 L 16 33 L 17 33 L 17 32 z M 36 10 L 36 11 L 37 11 L 37 10 z M 8 28 L 8 29 L 9 29 L 9 28 z M 27 41 L 27 42 L 28 42 L 28 41 z M 28 6 L 28 7 L 29 7 L 29 6 z M 38 56 L 38 57 L 39 57 L 39 56 z M 50 30 L 50 31 L 51 31 L 51 30 z M 42 26 L 42 27 L 43 27 L 43 26 z M 19 42 L 19 43 L 20 43 L 20 42 z M 11 38 L 11 39 L 12 39 L 12 38 z M 31 16 L 31 17 L 32 17 L 32 16 z M 22 47 L 22 48 L 23 48 L 23 47 z M 34 21 L 34 22 L 35 22 L 35 21 z M 54 36 L 54 37 L 55 37 L 55 36 z M 46 32 L 46 33 L 47 33 L 47 32 z M 23 48 L 23 49 L 24 49 L 24 48 z M 15 44 L 15 45 L 16 45 L 16 44 z M 16 9 L 16 10 L 17 10 L 17 9 z M 56 45 L 56 46 L 57 46 L 57 45 z M 27 18 L 27 19 L 28 19 L 28 18 z M 49 42 L 49 43 L 50 43 L 50 42 z M 50 7 L 50 8 L 51 8 L 51 7 z M 41 38 L 41 39 L 42 39 L 42 38 z M 53 12 L 53 13 L 54 13 L 54 12 z M 18 54 L 18 55 L 19 55 L 19 54 z M 19 19 L 19 20 L 20 20 L 20 19 z M 30 28 L 30 29 L 31 29 L 31 28 z M 50 43 L 50 44 L 51 44 L 51 43 z M 22 24 L 22 25 L 23 25 L 23 24 z M 46 9 L 46 10 L 47 10 L 47 9 z M 19 55 L 19 56 L 20 56 L 20 55 z M 52 52 L 52 53 L 53 53 L 53 52 z M 4 12 L 4 13 L 5 13 L 5 12 z M 15 21 L 15 22 L 16 22 L 16 21 z M 8 18 L 8 19 L 9 19 L 9 18 z M 49 19 L 49 20 L 50 20 L 50 19 z M 38 46 L 38 47 L 39 47 L 39 46 z M 49 55 L 49 56 L 50 56 L 50 55 z M 42 16 L 42 17 L 43 17 L 43 16 z M 53 25 L 53 26 L 54 26 L 54 25 z M 11 28 L 11 29 L 12 29 L 12 28 z M 30 41 L 30 42 L 31 42 L 31 41 z M 31 6 L 31 7 L 32 7 L 32 6 z M 22 37 L 22 38 L 23 38 L 23 37 z M 34 11 L 34 12 L 35 12 L 35 11 z M 33 52 L 33 53 L 34 53 L 34 52 z M 45 26 L 45 27 L 46 27 L 46 26 z M 15 34 L 15 35 L 16 35 L 16 34 z M 56 35 L 56 36 L 57 36 L 57 35 z M 48 31 L 48 32 L 49 32 L 49 31 z M 27 8 L 27 9 L 28 9 L 28 8 z M 38 23 L 38 24 L 39 24 L 39 23 z M 49 32 L 49 33 L 50 33 L 50 32 z M 41 28 L 41 29 L 42 29 L 42 28 z M 18 44 L 18 45 L 19 45 L 19 44 z M 22 14 L 22 15 L 23 15 L 23 14 z M 21 55 L 21 56 L 22 56 L 22 55 z M 11 41 L 11 42 L 12 42 L 12 41 z M 12 6 L 12 7 L 13 7 L 13 6 z M 44 38 L 44 39 L 45 39 L 45 38 z M 23 15 L 23 16 L 24 16 L 24 15 z M 37 35 L 37 36 L 38 36 L 38 35 z M 48 44 L 48 45 L 49 45 L 49 44 z M 41 5 L 41 6 L 42 6 L 42 5 z M 14 51 L 14 52 L 15 52 L 15 51 z M 6 47 L 6 48 L 7 48 L 7 47 z M 7 12 L 7 13 L 8 13 L 8 12 z M 18 21 L 18 22 L 19 22 L 19 21 z M 50 10 L 50 11 L 51 11 L 51 10 z M 7 48 L 7 49 L 8 49 L 8 48 z M 53 15 L 53 16 L 54 16 L 54 15 z M 40 45 L 40 46 L 41 46 L 41 45 z M 22 27 L 22 28 L 23 28 L 23 27 z M 52 55 L 52 56 L 53 56 L 53 55 z M 25 38 L 25 39 L 26 39 L 26 38 z M 44 51 L 44 52 L 45 52 L 45 51 z M 56 25 L 56 26 L 57 26 L 57 25 z M 29 8 L 29 9 L 30 9 L 30 8 z M 14 28 L 14 29 L 15 29 L 15 28 z M 41 18 L 41 19 L 42 19 L 42 18 z M 30 8 L 30 9 L 31 9 L 31 8 z M 22 4 L 22 5 L 23 5 L 23 4 z M 21 45 L 21 46 L 22 46 L 22 45 z M 32 54 L 32 55 L 33 55 L 33 54 z M 33 19 L 33 20 L 34 20 L 34 19 z M 52 32 L 52 33 L 53 33 L 53 32 z M 25 15 L 25 16 L 26 16 L 26 15 z M 14 5 L 14 6 L 15 6 L 15 5 z M 25 51 L 25 52 L 26 52 L 26 51 z M 14 41 L 14 42 L 15 42 L 15 41 z M 18 11 L 18 12 L 19 12 L 19 11 z M 32 31 L 32 32 L 33 32 L 33 31 z M 44 5 L 44 6 L 45 6 L 45 5 z M 10 12 L 10 13 L 11 13 L 11 12 z M 33 32 L 33 33 L 34 33 L 34 32 z M 10 48 L 10 49 L 11 49 L 11 48 z M 14 18 L 14 19 L 15 19 L 15 18 z M 41 8 L 41 9 L 42 9 L 42 8 z M 55 55 L 55 56 L 56 56 L 56 55 z M 28 38 L 28 39 L 29 39 L 29 38 z M 47 51 L 47 52 L 48 52 L 48 51 z M 39 47 L 39 48 L 40 48 L 40 47 z M 40 12 L 40 13 L 41 13 L 41 12 z M 40 48 L 40 49 L 41 49 L 41 48 z M 52 22 L 52 23 L 53 23 L 53 22 z M 35 54 L 35 55 L 36 55 L 36 54 z M 36 19 L 36 20 L 37 20 L 37 19 z M 55 32 L 55 33 L 56 33 L 56 32 z M 26 5 L 26 6 L 27 6 L 27 5 z M 39 24 L 39 25 L 40 25 L 40 24 z M 36 55 L 36 56 L 37 56 L 37 55 z M 28 51 L 28 52 L 29 52 L 29 51 z M 20 47 L 20 48 L 21 48 L 21 47 z M 32 21 L 32 22 L 33 22 L 33 21 z M 51 34 L 51 35 L 52 35 L 52 34 z M 9 37 L 9 38 L 10 38 L 10 37 z M 46 41 L 46 42 L 47 42 L 47 41 z M 56 5 L 56 6 L 57 6 L 57 5 z M 35 31 L 35 32 L 36 32 L 36 31 z M 6 4 L 6 5 L 7 5 L 7 4 z M 16 54 L 16 55 L 17 55 L 17 54 z M 8 50 L 8 51 L 9 51 L 9 50 z M 28 28 L 28 29 L 29 29 L 29 28 z M 39 37 L 39 38 L 40 38 L 40 37 z M 5 44 L 5 45 L 6 45 L 6 44 z M 50 52 L 50 53 L 51 53 L 51 52 z M 21 25 L 21 26 L 22 26 L 22 25 z M 32 34 L 32 35 L 33 35 L 33 34 z M 52 12 L 52 13 L 53 13 L 53 12 z M 34 43 L 34 44 L 35 44 L 35 43 z M 24 35 L 24 36 L 25 36 L 25 35 z M 43 48 L 43 49 L 44 49 L 44 48 z M 8 27 L 8 28 L 9 28 L 9 27 z M 55 22 L 55 23 L 56 23 L 56 22 z M 28 5 L 28 6 L 29 6 L 29 5 z M 5 21 L 5 22 L 6 22 L 6 21 z M 17 32 L 17 33 L 18 33 L 18 32 z M 20 37 L 20 38 L 21 38 L 21 37 z M 32 11 L 32 12 L 33 12 L 33 11 z M 46 31 L 46 32 L 47 32 L 47 31 z M 12 38 L 12 39 L 13 39 L 13 38 z M 24 12 L 24 13 L 25 13 L 25 12 z M 43 25 L 43 26 L 44 26 L 44 25 z M 24 48 L 24 49 L 25 49 L 25 48 z M 27 53 L 27 54 L 28 54 L 28 53 z M 20 14 L 20 15 L 21 15 L 21 14 z M 39 27 L 39 28 L 40 28 L 40 27 z M 5 34 L 5 35 L 6 35 L 6 34 z M 9 4 L 9 5 L 10 5 L 10 4 z M 42 38 L 42 39 L 43 39 L 43 38 z M 21 15 L 21 16 L 22 16 L 22 15 z M 53 47 L 53 48 L 54 48 L 54 47 z M 54 12 L 54 13 L 55 13 L 55 12 z M 31 28 L 31 29 L 32 29 L 32 28 z M 10 5 L 10 6 L 11 6 L 11 5 z M 34 33 L 34 34 L 35 34 L 35 33 z M 54 48 L 54 49 L 55 49 L 55 48 z M 12 51 L 12 52 L 13 52 L 13 51 z M 43 38 L 43 39 L 44 39 L 44 38 z M 16 21 L 16 22 L 17 22 L 17 21 z M 35 34 L 35 35 L 36 35 L 36 34 z M 8 17 L 8 18 L 9 18 L 9 17 z M 27 30 L 27 31 L 28 31 L 28 30 z M 39 4 L 39 5 L 40 5 L 40 4 z M 49 54 L 49 55 L 50 55 L 50 54 z M 41 50 L 41 51 L 42 51 L 42 50 z M 20 27 L 20 28 L 21 28 L 21 27 z M 19 31 L 19 32 L 20 32 L 20 31 z M 9 17 L 9 18 L 10 18 L 10 17 z M 22 36 L 22 37 L 23 37 L 23 36 z M 46 21 L 46 22 L 47 22 L 47 21 z M 12 28 L 12 29 L 13 29 L 13 28 z M 23 37 L 23 38 L 24 38 L 24 37 z M 43 15 L 43 16 L 44 16 L 44 15 z M 15 33 L 15 34 L 16 34 L 16 33 z M 29 53 L 29 54 L 30 54 L 30 53 z M 8 30 L 8 31 L 9 31 L 9 30 z M 28 8 L 28 9 L 29 9 L 29 8 z M 39 17 L 39 18 L 40 18 L 40 17 z M 5 24 L 5 25 L 6 25 L 6 24 z M 50 32 L 50 33 L 51 33 L 51 32 z M 42 28 L 42 29 L 43 29 L 43 28 z M 19 44 L 19 45 L 20 45 L 20 44 z M 34 23 L 34 24 L 35 24 L 35 23 z M 4 37 L 4 38 L 5 38 L 5 37 z M 45 38 L 45 39 L 46 39 L 46 38 z M 8 7 L 8 8 L 9 8 L 9 7 z M 38 35 L 38 36 L 39 36 L 39 35 z M 49 44 L 49 45 L 50 45 L 50 44 z M 50 9 L 50 10 L 51 10 L 51 9 z M 42 5 L 42 6 L 43 6 L 43 5 z M 53 14 L 53 15 L 54 15 L 54 14 z M 18 56 L 18 57 L 19 57 L 19 56 z M 19 21 L 19 22 L 20 22 L 20 21 z M 11 17 L 11 18 L 12 18 L 12 17 z M 30 30 L 30 31 L 31 31 L 31 30 z M 22 26 L 22 27 L 23 27 L 23 26 z M 46 11 L 46 12 L 47 12 L 47 11 z M 12 18 L 12 19 L 13 19 L 13 18 z M 52 54 L 52 55 L 53 55 L 53 54 z M 23 27 L 23 28 L 24 28 L 24 27 z M 43 5 L 43 6 L 44 6 L 44 5 z M 8 20 L 8 21 L 9 21 L 9 20 z M 49 21 L 49 22 L 50 22 L 50 21 z M 7 24 L 7 25 L 8 25 L 8 24 z M 26 37 L 26 38 L 27 38 L 27 37 z M 50 22 L 50 23 L 51 23 L 51 22 z M 42 18 L 42 19 L 43 19 L 43 18 z M 19 34 L 19 35 L 20 35 L 20 34 z M 31 8 L 31 9 L 32 9 L 32 8 z M 23 4 L 23 5 L 24 5 L 24 4 z M 34 13 L 34 14 L 35 14 L 35 13 z M 56 37 L 56 38 L 57 38 L 57 37 z M 14 40 L 14 41 L 15 41 L 15 40 z M 6 36 L 6 37 L 7 37 L 7 36 z M 49 34 L 49 35 L 50 35 L 50 34 z M 41 30 L 41 31 L 42 31 L 42 30 z M 7 37 L 7 38 L 8 38 L 8 37 z M 53 4 L 53 5 L 54 5 L 54 4 z M 26 50 L 26 51 L 27 51 L 27 50 z M 30 20 L 30 21 L 31 21 L 31 20 z M 33 31 L 33 32 L 34 32 L 34 31 z M 12 8 L 12 9 L 13 9 L 13 8 z M 4 4 L 4 5 L 5 5 L 5 4 z M 45 41 L 45 42 L 46 42 L 46 41 z M 37 37 L 37 38 L 38 38 L 38 37 z M 29 33 L 29 34 L 30 34 L 30 33 z M 55 54 L 55 55 L 56 55 L 56 54 z M 7 14 L 7 15 L 8 15 L 8 14 z M 18 23 L 18 24 L 19 24 L 19 23 z M 51 56 L 51 57 L 52 57 L 52 56 z M 33 44 L 33 45 L 34 45 L 34 44 z M 25 40 L 25 41 L 26 41 L 26 40 z M 45 18 L 45 19 L 46 19 L 46 18 z M 37 14 L 37 15 L 38 15 L 38 14 z M 48 23 L 48 24 L 49 24 L 49 23 z M 14 30 L 14 31 L 15 31 L 15 30 z M 6 26 L 6 27 L 7 27 L 7 26 z M 28 50 L 28 51 L 29 51 L 29 50 z M 18 36 L 18 37 L 19 37 L 19 36 z M 51 33 L 51 34 L 52 34 L 52 33 z M 30 10 L 30 11 L 31 11 L 31 10 z M 33 21 L 33 22 L 34 22 L 34 21 z M 56 4 L 56 5 L 57 5 L 57 4 z M 14 7 L 14 8 L 15 8 L 15 7 z M 25 53 L 25 54 L 26 54 L 26 53 z M 37 27 L 37 28 L 38 28 L 38 27 z M 14 43 L 14 44 L 15 44 L 15 43 z M 7 4 L 7 5 L 8 5 L 8 4 z M 26 17 L 26 18 L 27 18 L 27 17 z M 18 13 L 18 14 L 19 14 L 19 13 z M 40 37 L 40 38 L 41 38 L 41 37 z M 32 33 L 32 34 L 33 34 L 33 33 z M 10 14 L 10 15 L 11 15 L 11 14 z M 33 34 L 33 35 L 34 35 L 34 34 z M 25 30 L 25 31 L 26 31 L 26 30 z M 45 8 L 45 9 L 46 9 L 46 8 z M 10 50 L 10 51 L 11 51 L 11 50 z M 56 17 L 56 18 L 57 18 L 57 17 z M 14 20 L 14 21 L 15 21 L 15 20 z M 17 31 L 17 32 L 18 32 L 18 31 z M 28 40 L 28 41 L 29 41 L 29 40 z M 47 53 L 47 54 L 48 54 L 48 53 z M 20 36 L 20 37 L 21 37 L 21 36 z M 32 10 L 32 11 L 33 11 L 33 10 z M 5 56 L 5 57 L 6 57 L 6 56 z M 51 23 L 51 24 L 52 24 L 52 23 z M 21 37 L 21 38 L 22 38 L 22 37 z M 32 46 L 32 47 L 33 47 L 33 46 z M 33 11 L 33 12 L 34 12 L 34 11 z M 52 24 L 52 25 L 53 25 L 53 24 z M 29 13 L 29 14 L 30 14 L 30 13 z M 24 47 L 24 48 L 25 48 L 25 47 z M 28 17 L 28 18 L 29 18 L 29 17 z M 47 30 L 47 31 L 48 31 L 48 30 z M 39 26 L 39 27 L 40 27 L 40 26 z M 17 44 L 17 45 L 18 45 L 18 44 z M 28 53 L 28 54 L 29 54 L 29 53 z M 20 49 L 20 50 L 21 50 L 21 49 z M 21 14 L 21 15 L 22 15 L 22 14 z M 32 23 L 32 24 L 33 24 L 33 23 z M 51 36 L 51 37 L 52 37 L 52 36 z M 9 39 L 9 40 L 10 40 L 10 39 z M 10 4 L 10 5 L 11 5 L 11 4 z M 46 43 L 46 44 L 47 44 L 47 43 z M 25 20 L 25 21 L 26 21 L 26 20 z M 35 33 L 35 34 L 36 34 L 36 33 z M 14 10 L 14 11 L 15 11 L 15 10 z M 27 29 L 27 30 L 28 30 L 28 29 z M 6 6 L 6 7 L 7 7 L 7 6 z M 16 56 L 16 57 L 17 57 L 17 56 z M 8 52 L 8 53 L 9 53 L 9 52 z M 28 30 L 28 31 L 29 31 L 29 30 z M 47 43 L 47 44 L 48 44 L 48 43 z M 20 26 L 20 27 L 21 27 L 21 26 z M 5 46 L 5 47 L 6 47 L 6 46 z M 51 13 L 51 14 L 52 14 L 52 13 z M 9 16 L 9 17 L 10 17 L 10 16 z M 42 50 L 42 51 L 43 51 L 43 50 z M 13 23 L 13 24 L 14 24 L 14 23 z M 54 24 L 54 25 L 55 25 L 55 24 z M 44 10 L 44 11 L 45 11 L 45 10 z M 23 36 L 23 37 L 24 37 L 24 36 z M 34 45 L 34 46 L 35 46 L 35 45 z M 46 56 L 46 57 L 47 57 L 47 56 z M 43 50 L 43 51 L 44 51 L 44 50 z M 36 11 L 36 12 L 37 12 L 37 11 z M 8 29 L 8 30 L 9 30 L 9 29 z M 47 20 L 47 21 L 48 21 L 48 20 z M 39 16 L 39 17 L 40 17 L 40 16 z M 5 23 L 5 24 L 6 24 L 6 23 z M 20 39 L 20 40 L 21 40 L 21 39 z M 32 13 L 32 14 L 33 14 L 33 13 z M 30 52 L 30 53 L 31 53 L 31 52 z M 46 33 L 46 34 L 47 34 L 47 33 z M 12 40 L 12 41 L 13 41 L 13 40 z M 43 27 L 43 28 L 44 28 L 44 27 z M 16 10 L 16 11 L 17 11 L 17 10 z M 35 23 L 35 24 L 36 24 L 36 23 z M 16 46 L 16 47 L 17 47 L 17 46 z M 50 44 L 50 45 L 51 45 L 51 44 z M 53 49 L 53 50 L 54 50 L 54 49 z M 46 10 L 46 11 L 47 11 L 47 10 z M 23 26 L 23 27 L 24 27 L 24 26 z M 43 4 L 43 5 L 44 5 L 44 4 z M 15 22 L 15 23 L 16 23 L 16 22 z M 34 35 L 34 36 L 35 36 L 35 35 z M 12 53 L 12 54 L 13 54 L 13 53 z M 45 50 L 45 51 L 46 51 L 46 50 z M 24 27 L 24 28 L 25 28 L 25 27 z M 16 23 L 16 24 L 17 24 L 17 23 z M 53 26 L 53 27 L 54 27 L 54 26 z M 31 7 L 31 8 L 32 8 L 32 7 z M 46 23 L 46 24 L 47 24 L 47 23 z M 12 30 L 12 31 L 13 31 L 13 30 z M 31 43 L 31 44 L 32 44 L 32 43 z M 43 17 L 43 18 L 44 18 L 44 17 z M 34 48 L 34 49 L 35 49 L 35 48 z M 35 13 L 35 14 L 36 14 L 36 13 z M 29 55 L 29 56 L 30 56 L 30 55 z M 8 32 L 8 33 L 9 33 L 9 32 z M 28 10 L 28 11 L 29 11 L 29 10 z M 41 29 L 41 30 L 42 30 L 42 29 z M 26 49 L 26 50 L 27 50 L 27 49 z M 42 30 L 42 31 L 43 31 L 43 30 z M 54 4 L 54 5 L 55 5 L 55 4 z M 19 46 L 19 47 L 20 47 L 20 46 z M 11 42 L 11 43 L 12 43 L 12 42 z M 12 7 L 12 8 L 13 8 L 13 7 z M 31 20 L 31 21 L 32 21 L 32 20 z M 22 51 L 22 52 L 23 52 L 23 51 z M 23 16 L 23 17 L 24 17 L 24 16 z M 15 12 L 15 13 L 16 13 L 16 12 z M 34 25 L 34 26 L 35 26 L 35 25 z M 4 39 L 4 40 L 5 40 L 5 39 z M 45 40 L 45 41 L 46 41 L 46 40 z M 16 13 L 16 14 L 17 14 L 17 13 z M 56 49 L 56 50 L 57 50 L 57 49 z M 14 52 L 14 53 L 15 53 L 15 52 z M 26 26 L 26 27 L 27 27 L 27 26 z M 49 46 L 49 47 L 50 47 L 50 46 z M 11 19 L 11 20 L 12 20 L 12 19 z M 30 32 L 30 33 L 31 33 L 31 32 z M 22 28 L 22 29 L 23 29 L 23 28 z M 46 13 L 46 14 L 47 14 L 47 13 z M 33 43 L 33 44 L 34 44 L 34 43 z M 52 56 L 52 57 L 53 57 L 53 56 z M 4 16 L 4 17 L 5 17 L 5 16 z M 23 29 L 23 30 L 24 30 L 24 29 z M 45 53 L 45 54 L 46 54 L 46 53 z M 38 14 L 38 15 L 39 15 L 39 14 z M 29 45 L 29 46 L 30 46 L 30 45 z M 41 19 L 41 20 L 42 20 L 42 19 z M 26 39 L 26 40 L 27 40 L 27 39 z M 53 29 L 53 30 L 54 30 L 54 29 z M 11 32 L 11 33 L 12 33 L 12 32 z M 52 33 L 52 34 L 53 34 L 53 33 z M 22 41 L 22 42 L 23 42 L 23 41 z M 23 6 L 23 7 L 24 7 L 24 6 z M 34 15 L 34 16 L 35 16 L 35 15 z M 45 30 L 45 31 L 46 31 L 46 30 z M 29 22 L 29 23 L 30 23 L 30 22 z M 48 35 L 48 36 L 49 36 L 49 35 z M 14 42 L 14 43 L 15 43 L 15 42 z M 6 38 L 6 39 L 7 39 L 7 38 z M 18 12 L 18 13 L 19 13 L 19 12 z M 49 36 L 49 37 L 50 37 L 50 36 z M 7 39 L 7 40 L 8 40 L 8 39 z M 53 6 L 53 7 L 54 7 L 54 6 z M 18 48 L 18 49 L 19 49 L 19 48 z M 51 45 L 51 46 L 52 46 L 52 45 z M 30 22 L 30 23 L 31 23 L 31 22 z M 13 55 L 13 56 L 14 56 L 14 55 z M 25 29 L 25 30 L 26 30 L 26 29 z M 4 6 L 4 7 L 5 7 L 5 6 z M 45 7 L 45 8 L 46 8 L 46 7 z M 56 16 L 56 17 L 57 17 L 57 16 z M 48 12 L 48 13 L 49 13 L 49 12 z M 14 19 L 14 20 L 15 20 L 15 19 z M 45 43 L 45 44 L 46 44 L 46 43 z M 37 39 L 37 40 L 38 40 L 38 39 z M 48 48 L 48 49 L 49 49 L 49 48 z M 49 13 L 49 14 L 50 14 L 50 13 z M 41 9 L 41 10 L 42 10 L 42 9 z M 47 52 L 47 53 L 48 53 L 48 52 z M 26 29 L 26 30 L 27 30 L 27 29 z M 18 25 L 18 26 L 19 26 L 19 25 z M 40 49 L 40 50 L 41 50 L 41 49 z M 44 19 L 44 20 L 45 20 L 45 19 z M 10 26 L 10 27 L 11 27 L 11 26 z M 25 42 L 25 43 L 26 43 L 26 42 z M 44 55 L 44 56 L 45 56 L 45 55 z M 56 29 L 56 30 L 57 30 L 57 29 z M 29 12 L 29 13 L 30 13 L 30 12 z M 17 43 L 17 44 L 18 44 L 18 43 z M 28 52 L 28 53 L 29 53 L 29 52 z M 7 29 L 7 30 L 8 30 L 8 29 z M 51 35 L 51 36 L 52 36 L 52 35 z M 22 8 L 22 9 L 23 9 L 23 8 z M 9 38 L 9 39 L 10 39 L 10 38 z M 13 45 L 13 46 L 14 46 L 14 45 z M 25 19 L 25 20 L 26 20 L 26 19 z M 56 6 L 56 7 L 57 7 L 57 6 z M 14 9 L 14 10 L 15 10 L 15 9 z M 55 46 L 55 47 L 56 47 L 56 46 z M 7 6 L 7 7 L 8 7 L 8 6 z M 47 42 L 47 43 L 48 43 L 48 42 z M 5 45 L 5 46 L 6 46 L 6 45 z M 51 12 L 51 13 L 52 13 L 52 12 z M 13 22 L 13 23 L 14 23 L 14 22 z M 51 48 L 51 49 L 52 49 L 52 48 z M 10 16 L 10 17 L 11 17 L 11 16 z M 46 55 L 46 56 L 47 56 L 47 55 z M 55 23 L 55 24 L 56 24 L 56 23 z M 47 19 L 47 20 L 48 20 L 48 19 z M 28 42 L 28 43 L 29 43 L 29 42 z M 39 51 L 39 52 L 40 52 L 40 51 z M 40 16 L 40 17 L 41 17 L 41 16 z M 32 12 L 32 13 L 33 13 L 33 12 z M 51 25 L 51 26 L 52 26 L 52 25 z M 9 28 L 9 29 L 10 29 L 10 28 z M 21 39 L 21 40 L 22 40 L 22 39 z M 13 35 L 13 36 L 14 36 L 14 35 z M 32 48 L 32 49 L 33 49 L 33 48 z M 33 13 L 33 14 L 34 14 L 34 13 z M 25 9 L 25 10 L 26 10 L 26 9 z M 31 52 L 31 53 L 32 53 L 32 52 z M 24 49 L 24 50 L 25 50 L 25 49 z M 36 23 L 36 24 L 37 24 L 37 23 z M 8 41 L 8 42 L 9 42 L 9 41 z M 55 36 L 55 37 L 56 37 L 56 36 z M 28 19 L 28 20 L 29 20 L 29 19 z M 47 32 L 47 33 L 48 33 L 48 32 z M 20 15 L 20 16 L 21 16 L 21 15 z M 5 35 L 5 36 L 6 36 L 6 35 z M 17 46 L 17 47 L 18 47 L 18 46 z M 20 51 L 20 52 L 21 52 L 21 51 z M 40 29 L 40 30 L 41 30 L 41 29 z M 9 41 L 9 42 L 10 42 L 10 41 z M 10 6 L 10 7 L 11 7 L 11 6 z M 46 45 L 46 46 L 47 46 L 47 45 z M 12 52 L 12 53 L 13 53 L 13 52 z M 35 35 L 35 36 L 36 36 L 36 35 z M 27 31 L 27 32 L 28 32 L 28 31 z M 6 8 L 6 9 L 7 9 L 7 8 z M 39 5 L 39 6 L 40 6 L 40 5 z M 8 54 L 8 55 L 9 55 L 9 54 z M 28 32 L 28 33 L 29 33 L 29 32 z M 20 28 L 20 29 L 21 29 L 21 28 z M 51 15 L 51 16 L 52 16 L 52 15 z M 50 56 L 50 57 L 51 57 L 51 56 z M 42 52 L 42 53 L 43 53 L 43 52 z M 13 25 L 13 26 L 14 26 L 14 25 z M 12 29 L 12 30 L 13 30 L 13 29 z M 34 47 L 34 48 L 35 48 L 35 47 z M 35 12 L 35 13 L 36 13 L 36 12 z M 24 39 L 24 40 L 25 40 L 25 39 z M 35 48 L 35 49 L 36 49 L 36 48 z M 8 31 L 8 32 L 9 32 L 9 31 z M 55 26 L 55 27 L 56 27 L 56 26 z M 28 9 L 28 10 L 29 10 L 29 9 z M 27 44 L 27 45 L 28 45 L 28 44 z M 47 22 L 47 23 L 48 23 L 48 22 z M 20 5 L 20 6 L 21 6 L 21 5 z M 5 25 L 5 26 L 6 26 L 6 25 z M 50 33 L 50 34 L 51 34 L 51 33 z M 21 6 L 21 7 L 22 7 L 22 6 z M 53 38 L 53 39 L 54 39 L 54 38 z M 32 15 L 32 16 L 33 16 L 33 15 z M 19 45 L 19 46 L 20 46 L 20 45 z M 30 54 L 30 55 L 31 55 L 31 54 z M 46 35 L 46 36 L 47 36 L 47 35 z M 12 42 L 12 43 L 13 43 L 13 42 z M 31 55 L 31 56 L 32 56 L 32 55 z M 4 38 L 4 39 L 5 39 L 5 38 z M 24 16 L 24 17 L 25 17 L 25 16 z M 16 12 L 16 13 L 17 13 L 17 12 z M 35 25 L 35 26 L 36 26 L 36 25 z M 8 8 L 8 9 L 9 9 L 9 8 z M 27 21 L 27 22 L 28 22 L 28 21 z M 17 13 L 17 14 L 18 14 L 18 13 z M 8 44 L 8 45 L 9 45 L 9 44 z M 41 41 L 41 42 L 42 42 L 42 41 z M 20 18 L 20 19 L 21 19 L 21 18 z M 42 42 L 42 43 L 43 43 L 43 42 z M 53 51 L 53 52 L 54 52 L 54 51 z M 54 16 L 54 17 L 55 17 L 55 16 z M 31 32 L 31 33 L 32 33 L 32 32 z M 23 28 L 23 29 L 24 29 L 24 28 z M 43 6 L 43 7 L 44 7 L 44 6 z M 15 24 L 15 25 L 16 25 L 16 24 z M 34 37 L 34 38 L 35 38 L 35 37 z M 4 51 L 4 52 L 5 52 L 5 51 z M 16 25 L 16 26 L 17 26 L 17 25 z M 47 12 L 47 13 L 48 13 L 48 12 z M 39 8 L 39 9 L 40 9 L 40 8 z M 5 15 L 5 16 L 6 16 L 6 15 z M 41 54 L 41 55 L 42 55 L 42 54 z M 53 28 L 53 29 L 54 29 L 54 28 z M 46 25 L 46 26 L 47 26 L 47 25 z M 12 32 L 12 33 L 13 33 L 13 32 z M 4 28 L 4 29 L 5 29 L 5 28 z M 23 41 L 23 42 L 24 42 L 24 41 z M 24 6 L 24 7 L 25 7 L 25 6 z M 15 37 L 15 38 L 16 38 L 16 37 z M 27 11 L 27 12 L 28 12 L 28 11 z M 38 26 L 38 27 L 39 27 L 39 26 z M 20 8 L 20 9 L 21 9 L 21 8 z M 7 38 L 7 39 L 8 39 L 8 38 z M 26 51 L 26 52 L 27 52 L 27 51 z M 19 12 L 19 13 L 20 13 L 20 12 z M 50 36 L 50 37 L 51 37 L 51 36 z M 53 41 L 53 42 L 54 42 L 54 41 z M 54 6 L 54 7 L 55 7 L 55 6 z M 11 44 L 11 45 L 12 45 L 12 44 z M 12 9 L 12 10 L 13 10 L 13 9 z M 52 45 L 52 46 L 53 46 L 53 45 z M 4 5 L 4 6 L 5 6 L 5 5 z M 22 53 L 22 54 L 23 54 L 23 53 z M 23 18 L 23 19 L 24 19 L 24 18 z M 15 14 L 15 15 L 16 15 L 16 14 z M 34 27 L 34 28 L 35 28 L 35 27 z M 16 15 L 16 16 L 17 16 L 17 15 z M 29 34 L 29 35 L 30 35 L 30 34 z M 14 54 L 14 55 L 15 55 L 15 54 z M 6 50 L 6 51 L 7 51 L 7 50 z M 18 24 L 18 25 L 19 25 L 19 24 z M 38 39 L 38 40 L 39 40 L 39 39 z M 49 48 L 49 49 L 50 49 L 50 48 z M 42 9 L 42 10 L 43 10 L 43 9 z M 53 18 L 53 19 L 54 19 L 54 18 z M 19 25 L 19 26 L 20 26 L 20 25 z M 30 34 L 30 35 L 31 35 L 31 34 z M 34 4 L 34 5 L 35 5 L 35 4 z M 46 15 L 46 16 L 47 16 L 47 15 z M 33 45 L 33 46 L 34 46 L 34 45 z M 12 22 L 12 23 L 13 23 L 13 22 z M 4 18 L 4 19 L 5 19 L 5 18 z M 45 19 L 45 20 L 46 20 L 46 19 z M 56 28 L 56 29 L 57 29 L 57 28 z M 48 24 L 48 25 L 49 25 L 49 24 z M 14 31 L 14 32 L 15 32 L 15 31 z M 45 55 L 45 56 L 46 56 L 46 55 z M 29 47 L 29 48 L 30 48 L 30 47 z M 26 41 L 26 42 L 27 42 L 27 41 z M 18 37 L 18 38 L 19 38 L 19 37 z M 42 22 L 42 23 L 43 23 L 43 22 z M 11 34 L 11 35 L 12 35 L 12 34 z M 31 12 L 31 13 L 32 13 L 32 12 z M 44 31 L 44 32 L 45 32 L 45 31 z M 10 38 L 10 39 L 11 39 L 11 38 z M 34 17 L 34 18 L 35 18 L 35 17 z M 45 32 L 45 33 L 46 33 L 46 32 z M 37 28 L 37 29 L 38 29 L 38 28 z M 56 41 L 56 42 L 57 42 L 57 41 z M 29 24 L 29 25 L 30 25 L 30 24 z M 48 37 L 48 38 L 49 38 L 49 37 z M 6 40 L 6 41 L 7 41 L 7 40 z M 18 14 L 18 15 L 19 15 L 19 14 z M 53 8 L 53 9 L 54 9 L 54 8 z M 40 38 L 40 39 L 41 39 L 41 38 z M 30 24 L 30 25 L 31 25 L 31 24 z M 9 50 L 9 51 L 10 51 L 10 50 z M 33 35 L 33 36 L 34 36 L 34 35 z M 52 48 L 52 49 L 53 49 L 53 48 z M 37 5 L 37 6 L 38 6 L 38 5 z M 10 51 L 10 52 L 11 52 L 11 51 z M 48 14 L 48 15 L 49 15 L 49 14 z M 6 17 L 6 18 L 7 18 L 7 17 z M 41 11 L 41 12 L 42 12 L 42 11 z M 36 45 L 36 46 L 37 46 L 37 45 z M 6 53 L 6 54 L 7 54 L 7 53 z M 39 50 L 39 51 L 40 51 L 40 50 z M 18 27 L 18 28 L 19 28 L 19 27 z M 21 38 L 21 39 L 22 39 L 22 38 z M 13 34 L 13 35 L 14 35 L 14 34 z M 44 21 L 44 22 L 45 22 L 45 21 z M 10 28 L 10 29 L 11 29 L 11 28 z M 25 44 L 25 45 L 26 45 L 26 44 z M 56 31 L 56 32 L 57 32 L 57 31 z M 48 27 L 48 28 L 49 28 L 49 27 z M 6 30 L 6 31 L 7 31 L 7 30 z M 26 8 L 26 9 L 27 9 L 27 8 z M 18 4 L 18 5 L 19 5 L 19 4 z M 28 54 L 28 55 L 29 55 L 29 54 z M 20 50 L 20 51 L 21 51 L 21 50 z M 40 28 L 40 29 L 41 29 L 41 28 z M 32 24 L 32 25 L 33 25 L 33 24 z M 51 37 L 51 38 L 52 38 L 52 37 z M 9 40 L 9 41 L 10 41 L 10 40 z M 21 51 L 21 52 L 22 52 L 22 51 z M 13 47 L 13 48 L 14 48 L 14 47 z M 33 25 L 33 26 L 34 26 L 34 25 z M 52 38 L 52 39 L 53 39 L 53 38 z M 56 8 L 56 9 L 57 9 L 57 8 z M 6 7 L 6 8 L 7 8 L 7 7 z M 36 35 L 36 36 L 37 36 L 37 35 z M 8 53 L 8 54 L 9 54 L 9 53 z M 55 48 L 55 49 L 56 49 L 56 48 z M 28 31 L 28 32 L 29 32 L 29 31 z M 7 8 L 7 9 L 8 9 L 8 8 z M 39 40 L 39 41 L 40 41 L 40 40 z M 40 5 L 40 6 L 41 6 L 41 5 z M 5 47 L 5 48 L 6 48 L 6 47 z M 21 28 L 21 29 L 22 29 L 22 28 z M 40 41 L 40 42 L 41 42 L 41 41 z M 44 11 L 44 12 L 45 12 L 45 11 z M 10 18 L 10 19 L 11 19 L 11 18 z M 25 34 L 25 35 L 26 35 L 26 34 z M 37 8 L 37 9 L 38 9 L 38 8 z M 24 38 L 24 39 L 25 39 L 25 38 z M 43 51 L 43 52 L 44 52 L 44 51 z M 35 47 L 35 48 L 36 48 L 36 47 z M 17 35 L 17 36 L 18 36 L 18 35 z M 28 44 L 28 45 L 29 45 L 29 44 z M 20 40 L 20 41 L 21 41 L 21 40 z M 40 18 L 40 19 L 41 19 L 41 18 z M 51 27 L 51 28 L 52 28 L 52 27 z M 21 41 L 21 42 L 22 42 L 22 41 z M 13 37 L 13 38 L 14 38 L 14 37 z M 33 15 L 33 16 L 34 16 L 34 15 z M 24 51 L 24 52 L 25 52 L 25 51 z M 8 43 L 8 44 L 9 44 L 9 43 z M 28 21 L 28 22 L 29 22 L 29 21 z M 20 17 L 20 18 L 21 18 L 21 17 z M 39 30 L 39 31 L 40 31 L 40 30 z M 5 37 L 5 38 L 6 38 L 6 37 z M 51 4 L 51 5 L 52 5 L 52 4 z M 21 18 L 21 19 L 22 19 L 22 18 z M 13 14 L 13 15 L 14 15 L 14 14 z M 32 27 L 32 28 L 33 28 L 33 27 z M 9 43 L 9 44 L 10 44 L 10 43 z M 10 8 L 10 9 L 11 9 L 11 8 z M 46 47 L 46 48 L 47 48 L 47 47 z M 12 54 L 12 55 L 13 55 L 13 54 z M 4 50 L 4 51 L 5 51 L 5 50 z M 24 28 L 24 29 L 25 29 L 25 28 z M 35 37 L 35 38 L 36 38 L 36 37 z M 55 15 L 55 16 L 56 16 L 56 15 z M 27 33 L 27 34 L 28 34 L 28 33 z M 47 11 L 47 12 L 48 12 L 48 11 z M 39 7 L 39 8 L 40 8 L 40 7 z M 17 25 L 17 26 L 18 26 L 18 25 z M 8 56 L 8 57 L 9 57 L 9 56 z M 20 30 L 20 31 L 21 31 L 21 30 z M 32 4 L 32 5 L 33 5 L 33 4 z M 5 50 L 5 51 L 6 51 L 6 50 z M 51 17 L 51 18 L 52 18 L 52 17 z M 9 20 L 9 21 L 10 21 L 10 20 z M 42 54 L 42 55 L 43 55 L 43 54 z M 54 28 L 54 29 L 55 29 L 55 28 z M 46 24 L 46 25 L 47 25 L 47 24 z M 12 31 L 12 32 L 13 32 L 13 31 z M 31 44 L 31 45 L 32 45 L 32 44 z M 15 36 L 15 37 L 16 37 L 16 36 z M 34 49 L 34 50 L 35 50 L 35 49 z M 16 37 L 16 38 L 17 38 L 17 37 z M 36 15 L 36 16 L 37 16 L 37 15 z M 8 33 L 8 34 L 9 34 L 9 33 z M 28 11 L 28 12 L 29 12 L 29 11 z M 47 24 L 47 25 L 48 25 L 48 24 z M 20 7 L 20 8 L 21 8 L 21 7 z M 50 35 L 50 36 L 51 36 L 51 35 z M 53 40 L 53 41 L 54 41 L 54 40 z M 19 47 L 19 48 L 20 48 L 20 47 z M 11 43 L 11 44 L 12 44 L 12 43 z M 31 21 L 31 22 L 32 22 L 32 21 z M 46 37 L 46 38 L 47 38 L 47 37 z M 4 40 L 4 41 L 5 41 L 5 40 z M 23 53 L 23 54 L 24 54 L 24 53 z M 24 18 L 24 19 L 25 19 L 25 18 z M 16 14 L 16 15 L 17 15 L 17 14 z M 8 10 L 8 11 L 9 11 L 9 10 z M 5 4 L 5 5 L 6 5 L 6 4 z M 38 38 L 38 39 L 39 39 L 39 38 z M 17 15 L 17 16 L 18 16 L 18 15 z M 50 12 L 50 13 L 51 13 L 51 12 z M 20 20 L 20 21 L 21 21 L 21 20 z M 7 50 L 7 51 L 8 51 L 8 50 z M 30 33 L 30 34 L 31 34 L 31 33 z M 9 10 L 9 11 L 10 11 L 10 10 z M 50 48 L 50 49 L 51 49 L 51 48 z M 53 53 L 53 54 L 54 54 L 54 53 z M 37 50 L 37 51 L 38 51 L 38 50 z M 16 27 L 16 28 L 17 28 L 17 27 z M 8 23 L 8 24 L 9 24 L 9 23 z M 5 17 L 5 18 L 6 18 L 6 17 z M 19 37 L 19 38 L 20 38 L 20 37 z M 22 42 L 22 43 L 23 43 L 23 42 z M 34 16 L 34 17 L 35 17 L 35 16 z M 46 27 L 46 28 L 47 28 L 47 27 z M 12 34 L 12 35 L 13 35 L 13 34 z M 4 30 L 4 31 L 5 31 L 5 30 z M 45 31 L 45 32 L 46 32 L 46 31 z M 15 39 L 15 40 L 16 40 L 16 39 z M 16 4 L 16 5 L 17 5 L 17 4 z M 48 36 L 48 37 L 49 37 L 49 36 z M 27 13 L 27 14 L 28 14 L 28 13 z M 49 37 L 49 38 L 50 38 L 50 37 z M 41 33 L 41 34 L 42 34 L 42 33 z M 7 40 L 7 41 L 8 41 L 8 40 z M 53 7 L 53 8 L 54 8 L 54 7 z M 18 49 L 18 50 L 19 50 L 19 49 z M 42 34 L 42 35 L 43 35 L 43 34 z M 54 8 L 54 9 L 55 9 L 55 8 z M 46 4 L 46 5 L 47 5 L 47 4 z M 12 11 L 12 12 L 13 12 L 13 11 z M 52 47 L 52 48 L 53 48 L 53 47 z M 4 7 L 4 8 L 5 8 L 5 7 z M 44 43 L 44 44 L 45 44 L 45 43 z M 23 20 L 23 21 L 24 21 L 24 20 z M 15 16 L 15 17 L 16 17 L 16 16 z M 34 29 L 34 30 L 35 30 L 35 29 z M 45 44 L 45 45 L 46 45 L 46 44 z M 38 5 L 38 6 L 39 6 L 39 5 z M 56 53 L 56 54 L 57 54 L 57 53 z M 29 36 L 29 37 L 30 37 L 30 36 z M 48 49 L 48 50 L 49 50 L 49 49 z M 14 56 L 14 57 L 15 57 L 15 56 z M 6 52 L 6 53 L 7 53 L 7 52 z M 7 17 L 7 18 L 8 18 L 8 17 z M 18 26 L 18 27 L 19 27 L 19 26 z M 7 53 L 7 54 L 8 54 L 8 53 z M 53 20 L 53 21 L 54 21 L 54 20 z M 40 50 L 40 51 L 41 51 L 41 50 z M 19 27 L 19 28 L 20 28 L 20 27 z M 30 36 L 30 37 L 31 37 L 31 36 z M 34 6 L 34 7 L 35 7 L 35 6 z M 33 47 L 33 48 L 34 48 L 34 47 z M 45 21 L 45 22 L 46 22 L 46 21 z M 37 17 L 37 18 L 38 18 L 38 17 z M 48 26 L 48 27 L 49 27 L 49 26 z M 38 18 L 38 19 L 39 19 L 39 18 z M 49 27 L 49 28 L 50 28 L 50 27 z M 7 30 L 7 31 L 8 31 L 8 30 z M 18 39 L 18 40 L 19 40 L 19 39 z M 19 4 L 19 5 L 20 5 L 20 4 z M 33 24 L 33 25 L 34 25 L 34 24 z M 52 37 L 52 38 L 53 38 L 53 37 z M 44 33 L 44 34 L 45 34 L 45 33 z M 10 40 L 10 41 L 11 41 L 11 40 z M 56 7 L 56 8 L 57 8 L 57 7 z M 45 34 L 45 35 L 46 35 L 46 34 z M 37 30 L 37 31 L 38 31 L 38 30 z M 48 39 L 48 40 L 49 40 L 49 39 z M 14 46 L 14 47 L 15 47 L 15 46 z M 6 42 L 6 43 L 7 43 L 7 42 z M 7 7 L 7 8 L 8 8 L 8 7 z M 18 16 L 18 17 L 19 17 L 19 16 z M 40 40 L 40 41 L 41 41 L 41 40 z M 19 17 L 19 18 L 20 18 L 20 17 z M 32 36 L 32 37 L 33 37 L 33 36 z M 52 14 L 52 15 L 53 15 L 53 14 z M 22 22 L 22 23 L 23 23 L 23 22 z M 52 50 L 52 51 L 53 51 L 53 50 z M 25 33 L 25 34 L 26 34 L 26 33 z M 37 7 L 37 8 L 38 8 L 38 7 z M 10 53 L 10 54 L 11 54 L 11 53 z M 48 16 L 48 17 L 49 17 L 49 16 z M 29 39 L 29 40 L 30 40 L 30 39 z M 49 17 L 49 18 L 50 18 L 50 17 z M 36 47 L 36 48 L 37 48 L 37 47 z M 28 43 L 28 44 L 29 44 L 29 43 z M 18 29 L 18 30 L 19 30 L 19 29 z M 40 53 L 40 54 L 41 54 L 41 53 z M 32 49 L 32 50 L 33 50 L 33 49 z M 44 23 L 44 24 L 45 24 L 45 23 z M 10 30 L 10 31 L 11 31 L 11 30 z M 45 24 L 45 25 L 46 25 L 46 24 z M 37 20 L 37 21 L 38 21 L 38 20 z M 48 29 L 48 30 L 49 30 L 49 29 z M 55 37 L 55 38 L 56 38 L 56 37 z M 27 55 L 27 56 L 28 56 L 28 55 z M 26 10 L 26 11 L 27 11 L 27 10 z M 18 6 L 18 7 L 19 7 L 19 6 z M 28 56 L 28 57 L 29 57 L 29 56 z M 20 52 L 20 53 L 21 53 L 21 52 z M 21 17 L 21 18 L 22 18 L 22 17 z M 40 30 L 40 31 L 41 31 L 41 30 z M 32 26 L 32 27 L 33 27 L 33 26 z M 52 4 L 52 5 L 53 5 L 53 4 z M 10 7 L 10 8 L 11 8 L 11 7 z M 21 53 L 21 54 L 22 54 L 22 53 z M 13 49 L 13 50 L 14 50 L 14 49 z M 33 27 L 33 28 L 34 28 L 34 27 z M 25 23 L 25 24 L 26 24 L 26 23 z M 56 10 L 56 11 L 57 11 L 57 10 z M 14 13 L 14 14 L 15 14 L 15 13 z M 17 24 L 17 25 L 18 25 L 18 24 z M 36 37 L 36 38 L 37 38 L 37 37 z M 47 46 L 47 47 L 48 47 L 48 46 z M 20 29 L 20 30 L 21 30 L 21 29 z M 39 42 L 39 43 L 40 43 L 40 42 z M 40 7 L 40 8 L 41 8 L 41 7 z M 21 30 L 21 31 L 22 31 L 22 30 z M 13 26 L 13 27 L 14 27 L 14 26 z M 33 4 L 33 5 L 34 5 L 34 4 z M 52 17 L 52 18 L 53 18 L 53 17 z M 10 20 L 10 21 L 11 21 L 11 20 z M 43 53 L 43 54 L 44 54 L 44 53 z M 16 36 L 16 37 L 17 37 L 17 36 z M 36 14 L 36 15 L 37 15 L 37 14 z M 55 27 L 55 28 L 56 28 L 56 27 z M 27 45 L 27 46 L 28 46 L 28 45 z M 6 22 L 6 23 L 7 23 L 7 22 z M 39 19 L 39 20 L 40 20 L 40 19 z M 5 26 L 5 27 L 6 27 L 6 26 z M 36 50 L 36 51 L 37 51 L 37 50 z M 20 42 L 20 43 L 21 43 L 21 42 z M 21 7 L 21 8 L 22 8 L 22 7 z M 40 20 L 40 21 L 41 21 L 41 20 z M 9 32 L 9 33 L 10 33 L 10 32 z M 54 40 L 54 41 L 55 41 L 55 40 z M 46 36 L 46 37 L 47 37 L 47 36 z M 31 56 L 31 57 L 32 57 L 32 56 z M 23 52 L 23 53 L 24 53 L 24 52 z M 15 48 L 15 49 L 16 49 L 16 48 z M 55 4 L 55 5 L 56 5 L 56 4 z M 24 53 L 24 54 L 25 54 L 25 53 z M 36 27 L 36 28 L 37 28 L 37 27 z M 28 23 L 28 24 L 29 24 L 29 23 z M 5 39 L 5 40 L 6 40 L 6 39 z M 50 47 L 50 48 L 51 48 L 51 47 z M 42 43 L 42 44 L 43 44 L 43 43 z M 21 20 L 21 21 L 22 21 L 22 20 z M 53 52 L 53 53 L 54 53 L 54 52 z M 54 17 L 54 18 L 55 18 L 55 17 z M 10 10 L 10 11 L 11 11 L 11 10 z M 34 38 L 34 39 L 35 39 L 35 38 z M 54 53 L 54 54 L 55 54 L 55 53 z M 46 49 L 46 50 L 47 50 L 47 49 z M 12 56 L 12 57 L 13 57 L 13 56 z M 4 52 L 4 53 L 5 53 L 5 52 z M 43 43 L 43 44 L 44 44 L 44 43 z M 35 39 L 35 40 L 36 40 L 36 39 z M 36 4 L 36 5 L 37 5 L 37 4 z M 8 22 L 8 23 L 9 23 L 9 22 z M 55 17 L 55 18 L 56 18 L 56 17 z M 27 35 L 27 36 L 28 36 L 28 35 z M 38 50 L 38 51 L 39 51 L 39 50 z M 17 27 L 17 28 L 18 28 L 18 27 z M 41 55 L 41 56 L 42 56 L 42 55 z M 20 32 L 20 33 L 21 33 L 21 32 z M 40 10 L 40 11 L 41 11 L 41 10 z M 32 6 L 32 7 L 33 7 L 33 6 z M 30 45 L 30 46 L 31 46 L 31 45 z M 9 22 L 9 23 L 10 23 L 10 22 z M 42 56 L 42 57 L 43 57 L 43 56 z M 12 33 L 12 34 L 13 34 L 13 33 z M 31 46 L 31 47 L 32 47 L 32 46 z M 24 7 L 24 8 L 25 8 L 25 7 z M 34 51 L 34 52 L 35 52 L 35 51 z M 35 16 L 35 17 L 36 17 L 36 16 z M 16 39 L 16 40 L 17 40 L 17 39 z M 17 4 L 17 5 L 18 5 L 18 4 z M 27 48 L 27 49 L 28 49 L 28 48 z M 28 13 L 28 14 L 29 14 L 29 13 z M 39 22 L 39 23 L 40 23 L 40 22 z M 26 52 L 26 53 L 27 53 L 27 52 z M 50 37 L 50 38 L 51 38 L 51 37 z M 54 7 L 54 8 L 55 8 L 55 7 z M 19 49 L 19 50 L 20 50 L 20 49 z M 11 45 L 11 46 L 12 46 L 12 45 z M 12 10 L 12 11 L 13 11 L 13 10 z M 22 54 L 22 55 L 23 55 L 23 54 z M 23 19 L 23 20 L 24 20 L 24 19 z M 34 28 L 34 29 L 35 29 L 35 28 z M 46 39 L 46 40 L 47 40 L 47 39 z M 23 55 L 23 56 L 24 56 L 24 55 z M 16 16 L 16 17 L 17 17 L 17 16 z M 56 52 L 56 53 L 57 53 L 57 52 z M 35 29 L 35 30 L 36 30 L 36 29 z M 8 12 L 8 13 L 9 13 L 9 12 z M 27 25 L 27 26 L 28 26 L 28 25 z M 50 14 L 50 15 L 51 15 L 51 14 z M 41 45 L 41 46 L 42 46 L 42 45 z M 42 10 L 42 11 L 43 11 L 43 10 z M 7 52 L 7 53 L 8 53 L 8 52 z M 11 22 L 11 23 L 12 23 L 12 22 z M 30 35 L 30 36 L 31 36 L 31 35 z M 42 46 L 42 47 L 43 47 L 43 46 z M 54 20 L 54 21 L 55 21 L 55 20 z M 31 36 L 31 37 L 32 37 L 32 36 z M 34 41 L 34 42 L 35 42 L 35 41 z M 45 56 L 45 57 L 46 57 L 46 56 z M 29 48 L 29 49 L 30 49 L 30 48 z M 8 25 L 8 26 L 9 26 L 9 25 z M 49 26 L 49 27 L 50 27 L 50 26 z M 41 22 L 41 23 L 42 23 L 42 22 z M 18 38 L 18 39 L 19 39 L 19 38 z M 30 12 L 30 13 L 31 13 L 31 12 z M 42 23 L 42 24 L 43 24 L 43 23 z M 53 32 L 53 33 L 54 33 L 54 32 z M 11 35 L 11 36 L 12 36 L 12 35 z M 30 48 L 30 49 L 31 49 L 31 48 z M 31 13 L 31 14 L 32 14 L 32 13 z M 23 9 L 23 10 L 24 10 L 24 9 z M 25 55 L 25 56 L 26 56 L 26 55 z M 45 33 L 45 34 L 46 34 L 46 33 z M 24 10 L 24 11 L 25 11 L 25 10 z M 16 6 L 16 7 L 17 7 L 17 6 z M 14 45 L 14 46 L 15 46 L 15 45 z M 38 30 L 38 31 L 39 31 L 39 30 z M 49 39 L 49 40 L 50 40 L 50 39 z M 50 4 L 50 5 L 51 5 L 51 4 z M 7 42 L 7 43 L 8 43 L 8 42 z M 18 51 L 18 52 L 19 52 L 19 51 z M 19 16 L 19 17 L 20 17 L 20 16 z" id="qr-path" /></svg>